<svg width="35" height="34" viewBox="0 0 35 34" fill="none" xmlns="http://www.w3.org/2000/svg">
<path d="M21.3059 13.2201H18.3447V11.0022C18.3447 10.3198 19.0301 10.1628 19.3495 10.1628C19.6689 10.1628 21.266 10.1628 21.266 10.1628V7.16696L19.0701 7.15332C16.0756 7.15332 15.3969 9.38485 15.3969 10.818V13.2133H13.2275V16.3047H15.3969C15.3969 20.2628 15.3969 24.6304 15.3969 24.6304H18.3447C18.3447 24.6304 18.3447 20.2218 18.3447 16.3047H20.8534L21.3059 13.2201Z" fill="white"/>
<path d="M17.5 32.7925C26.6127 32.7925 34 25.6755 34 16.8962C34 8.11699 26.6127 1 17.5 1C8.3873 1 1 8.11699 1 16.8962C1 25.6755 8.3873 32.7925 17.5 32.7925Z" stroke="white" stroke-miterlimit="10"/>
</svg>
