<svg width="345" height="50" viewBox="0 0 345 50" fill="none" xmlns="http://www.w3.org/2000/svg">
<g clip-path="url(#clip0)">
<path fill-rule="evenodd" clip-rule="evenodd" d="M61.3709 25.7826V32.8284H59.5959V17.1719H61.3709V24.128H70.4472V17.1719H72.2222V32.8284H70.4472V25.7826H61.3709Z" fill="#195090"/>
<path fill-rule="evenodd" clip-rule="evenodd" d="M87.8558 18.7323L84.2243 26.6601H91.4653L87.8558 18.7323ZM95.9596 32.3236H94.0298L92.1685 28.215H83.5205L81.6368 32.3236H79.798L87.039 16.667H88.7186L95.9596 32.3236Z" fill="#195090"/>
<path fill-rule="evenodd" clip-rule="evenodd" d="M110.832 28.3224H110.742L105.027 19.9401V32.6259H103.301V16.9365H105.094L110.81 25.4986L116.525 16.9365H118.318V32.6259H116.548V19.9178L110.832 28.3224Z" fill="#195090"/>
<path fill-rule="evenodd" clip-rule="evenodd" d="M127.395 32.6259H129.166V16.9365H127.395V32.6259Z" fill="#195090"/>
<path fill-rule="evenodd" clip-rule="evenodd" d="M138.243 16.9365H140.014V30.9901H148.844V32.6259H138.243V16.9365Z" fill="#195090"/>
<path fill-rule="evenodd" clip-rule="evenodd" d="M160.275 32.6259H158.505V18.5729H153.237V16.9365H165.542V18.5729H160.275V32.6259Z" fill="#195090"/>
<path fill-rule="evenodd" clip-rule="evenodd" d="M185.3 22.2705C184.993 21.4791 184.564 20.7912 184.011 20.2084C183.458 19.6261 182.805 19.163 182.05 18.819C181.295 18.4751 180.47 18.3034 179.573 18.3034C178.677 18.3034 177.851 18.4715 177.096 18.8074C176.342 19.1438 175.696 19.6034 175.158 20.1862C174.62 20.769 174.197 21.4528 173.891 22.2372C173.585 23.0215 173.432 23.8619 173.432 24.7584C173.432 25.6549 173.585 26.4993 173.891 27.2912C174.197 28.0837 174.627 28.7705 175.18 29.3528C175.733 29.9362 176.387 30.3993 177.141 30.7427C177.896 31.0867 178.722 31.2584 179.618 31.2584C180.515 31.2584 181.34 31.0902 182.095 30.7539C182.849 30.418 183.495 29.9584 184.033 29.3756C184.572 28.7927 184.993 28.1089 185.3 27.3251C185.606 26.5402 185.76 25.6998 185.76 24.8034C185.76 23.9069 185.606 23.0624 185.3 22.2705ZM187.015 27.8624C186.626 28.8417 186.08 29.7044 185.378 30.4513C184.676 31.1988 183.832 31.7922 182.845 32.2331C181.859 32.6741 180.769 32.8943 179.573 32.8943C178.378 32.8943 177.291 32.6776 176.312 32.2443C175.333 31.8114 174.493 31.2246 173.79 30.4852C173.088 29.7458 172.547 28.8867 172.166 27.9074C171.785 26.9291 171.594 25.8943 171.594 24.8034C171.594 23.7124 171.788 22.6781 172.177 21.6988C172.565 20.721 173.111 19.8579 173.813 19.1104C174.515 18.3635 175.36 17.7695 176.346 17.3286C177.332 16.8882 178.422 16.667 179.618 16.667C180.813 16.667 181.9 16.8842 182.879 17.317C183.858 17.7508 184.698 18.3372 185.4 19.0771C186.103 19.8165 186.645 20.6761 187.026 21.6544C187.407 22.6332 187.597 23.668 187.597 24.7584C187.597 25.8493 187.403 26.8842 187.015 27.8624Z" fill="#195090"/>
<path fill-rule="evenodd" clip-rule="evenodd" d="M207.365 16.9365H209.091V32.6259H207.679L197.548 19.7608V32.6259H195.823V16.9365H197.481L207.365 29.5103V16.9365Z" fill="#195090"/>
<path fill-rule="evenodd" clip-rule="evenodd" d="M238.034 19.436C237.263 18.8608 236.24 18.5729 234.967 18.5729H230.989V25.4764H234.877C235.521 25.4764 236.11 25.3941 236.641 25.2295C237.173 25.0653 237.63 24.83 238.012 24.5234C238.394 24.2173 238.686 23.8512 238.888 23.4254C239.091 22.9992 239.192 22.5254 239.192 22.0022C239.192 20.8668 238.806 20.0108 238.034 19.436ZM240.469 24.1759C240.141 24.8188 239.696 25.3562 239.136 25.7901C238.575 26.2234 237.922 26.5486 237.175 26.7648C236.427 26.9815 235.636 27.0901 234.799 27.0901H230.989V32.6259H229.218V16.9365H235.09C235.972 16.9365 236.775 17.0527 237.5 17.284C238.224 17.5158 238.845 17.8441 239.36 18.2704C239.876 18.6961 240.272 19.2194 240.548 19.839C240.824 20.4593 240.963 21.1582 240.963 21.935C240.963 22.786 240.798 23.534 240.469 24.1759Z" fill="#195090"/>
<path fill-rule="evenodd" clip-rule="evenodd" d="M261.683 22.2705C261.377 21.4791 260.947 20.7912 260.395 20.2084C259.842 19.6261 259.188 19.163 258.433 18.819C257.679 18.4751 256.853 18.3034 255.956 18.3034C255.06 18.3034 254.234 18.4715 253.48 18.8074C252.725 19.1438 252.079 19.6034 251.541 20.1862C251.003 20.769 250.581 21.4528 250.275 22.2372C249.969 23.0215 249.815 23.8619 249.815 24.7584C249.815 25.6549 249.969 26.4993 250.275 27.2912C250.581 28.0837 251.011 28.7705 251.564 29.3528C252.117 29.9362 252.77 30.3993 253.525 30.7427C254.279 31.0867 255.105 31.2584 256.001 31.2584C256.898 31.2584 257.723 31.0902 258.478 30.7539C259.233 30.418 259.879 29.9584 260.417 29.3756C260.955 28.7927 261.377 28.1089 261.683 27.3251C261.989 26.5402 262.142 25.6998 262.142 24.8034C262.142 23.9069 261.989 23.0624 261.683 22.2705ZM263.398 27.8624C263.009 28.8417 262.464 29.7044 261.762 30.4513C261.059 31.1988 260.215 31.7922 259.229 32.2331C258.243 32.6741 257.152 32.8943 255.956 32.8943C254.761 32.8943 253.674 32.6776 252.695 32.2443C251.717 31.8114 250.876 31.2246 250.174 30.4852C249.472 29.7458 248.93 28.8867 248.549 27.9074C248.168 26.9291 247.978 25.8943 247.978 24.8034C247.978 23.7124 248.172 22.6781 248.56 21.6988C248.948 20.721 249.494 19.8579 250.196 19.1104C250.899 18.3635 251.743 17.7695 252.729 17.3286C253.716 16.8882 254.806 16.667 256.001 16.667C257.196 16.667 258.284 16.8842 259.263 17.317C260.241 17.7508 261.082 18.3372 261.784 19.0771C262.486 19.8165 263.028 20.6761 263.409 21.6544C263.79 22.6332 263.981 23.668 263.981 24.7584C263.981 25.8493 263.786 26.8842 263.398 27.8624Z" fill="#195090"/>
<path fill-rule="evenodd" clip-rule="evenodd" d="M281.796 19.3936C281.092 18.8466 280.104 18.5729 278.83 18.5729H273.977V24.9603H278.808C279.392 24.9603 279.931 24.8855 280.426 24.736C280.92 24.586 281.347 24.3719 281.707 24.0941C282.066 23.8168 282.346 23.4759 282.549 23.0714C282.751 22.6663 282.852 22.2093 282.852 21.6992C282.852 20.7093 282.5 19.9411 281.796 19.3936ZM283.01 32.6259L278.46 26.5295H273.977V32.6259H272.206V16.9365H278.953C279.819 16.9365 280.6 17.0491 281.294 17.2729C281.989 17.4976 282.583 17.8153 283.077 18.2259C283.57 18.6375 283.951 19.1305 284.219 19.7062C284.489 20.2815 284.623 20.9209 284.623 21.6234C284.623 22.281 284.518 22.8683 284.309 23.3835C284.1 23.8997 283.805 24.3481 283.424 24.7289C283.043 25.1103 282.591 25.4279 282.068 25.6825C281.544 25.9365 280.977 26.1158 280.365 26.2199L285.184 32.6259H283.01Z" fill="#195090"/>
<path fill-rule="evenodd" clip-rule="evenodd" d="M298.654 32.6259H296.884V18.5729H291.617V16.9365H303.921V18.5729H298.654V32.6259Z" fill="#195090"/>
<path fill-rule="evenodd" clip-rule="evenodd" d="M323.084 18.5507H313.514V23.9072H322.075V25.5204H313.514V31.0123H323.196V32.6259H311.743V16.9365H323.084V18.5507Z" fill="#195090"/>
<path fill-rule="evenodd" clip-rule="evenodd" d="M340.833 19.3936C340.129 18.8466 339.14 18.5729 337.867 18.5729H333.014V24.9603H337.844C338.428 24.9603 338.968 24.8855 339.462 24.736C339.956 24.586 340.383 24.3719 340.743 24.0941C341.102 23.8168 341.383 23.4759 341.586 23.0714C341.788 22.6663 341.889 22.2093 341.889 21.6992C341.889 20.7093 341.537 19.9411 340.833 19.3936ZM342.046 32.6259L337.496 26.5295H333.014V32.6259H331.243V16.9365H337.989C338.855 16.9365 339.636 17.0491 340.331 17.2729C341.026 17.4976 341.62 17.8153 342.113 18.2259C342.606 18.6375 342.987 19.1305 343.256 19.7062C343.525 20.2815 343.66 20.9209 343.66 21.6234C343.66 22.281 343.555 22.8683 343.346 23.3835C343.137 23.8997 342.842 24.3481 342.461 24.7289C342.08 25.1103 341.627 25.4279 341.104 25.6825C340.581 25.9365 340.014 26.1158 339.401 26.2199L344.22 32.6259H342.046Z" fill="#195090"/>
<path fill-rule="evenodd" clip-rule="evenodd" d="M25 0C11.2151 0 0 11.2149 0 25C0 28.4951 0.710949 31.8786 2.11321 35.0566C3.46698 38.1253 5.39635 40.8552 7.84733 43.1702C8.60358 43.8844 9.41485 44.5599 10.2583 45.1778L10.7239 45.519V26.3483H22.325V35.85H25.293V16.9371H36.223C37.8638 16.9371 39.1942 17.3084 40.1768 18.0404C41.1457 18.763 41.6167 19.8162 41.6167 21.2596C41.6167 21.9163 41.4886 22.5184 41.2365 23.0494C40.984 23.5804 40.6143 24.0431 40.1377 24.4249C39.6551 24.8121 39.0672 25.1147 38.3897 25.3238C37.7058 25.5352 36.9361 25.6426 36.1018 25.6426H28.1936V35.85H31.1618V28.3994H35.9972C37.1459 28.3994 38.249 28.2485 39.2756 27.9505C40.3121 27.6502 41.2329 27.1921 42.0127 26.5888C42.7973 25.9824 43.4284 25.2187 43.889 24.3188C44.3504 23.4164 44.5845 22.3567 44.5845 21.169C44.5845 20.0872 44.3883 19.0983 44.0012 18.2297C43.6119 17.357 43.0469 16.6109 42.3216 16.0117C41.6033 15.4183 40.7281 14.9538 39.7206 14.6314C38.7204 14.3119 37.5994 14.15 36.3892 14.15H22.325V23.531H10.7239V14.15H7.75568V38.9976C4.54084 35.0434 2.77921 30.104 2.77921 25C2.77921 12.7474 12.7474 2.77921 25 2.77921C37.2526 2.77921 47.2208 12.7474 47.2208 25C47.2208 37.2526 37.2526 47.2208 25 47.2208C21.0954 47.2208 17.2521 46.1883 13.8849 44.2351L13.4456 43.9801V47.1665L13.6043 47.2482C17.1548 49.0741 20.9889 50 25 50C38.7851 50 50 38.7851 50 25C50 11.2149 38.7851 0 25 0Z" fill="#195090"/>
</g>
<defs>
<clipPath id="clip0">
<rect width="344.444" height="50" fill="white"/>
</clipPath>
</defs>
</svg>
