<svg width="345" height="50" viewBox="0 0 345 50" fill="none" xmlns="http://www.w3.org/2000/svg">
<g clip-path="url(#clip0)">
<path fill-rule="evenodd" clip-rule="evenodd" d="M61.3709 25.7826V32.8284H59.5959V17.1719H61.3709V24.128H70.4472V17.1719H72.2222V32.8284H70.4472V25.7826H61.3709Z" fill="white"/>
<path fill-rule="evenodd" clip-rule="evenodd" d="M87.8558 18.732L84.2243 26.6599H91.4652L87.8558 18.732ZM95.9596 32.3233H94.0298L92.1685 28.2147H83.5205L81.6367 32.3233H79.798L87.0389 16.6667H88.7186L95.9596 32.3233Z" fill="white"/>
<path fill-rule="evenodd" clip-rule="evenodd" d="M110.832 28.3217H110.742L105.027 19.9393V32.6252H103.302V16.9358H105.094L110.81 25.4979L116.525 16.9358H118.318V32.6252H116.548V19.9171L110.832 28.3217Z" fill="white"/>
<path fill-rule="evenodd" clip-rule="evenodd" d="M127.395 32.6252H129.166V16.9358H127.395V32.6252Z" fill="white"/>
<path fill-rule="evenodd" clip-rule="evenodd" d="M138.243 16.9358H140.014V30.9893H148.844V32.6252H138.243V16.9358Z" fill="white"/>
<path fill-rule="evenodd" clip-rule="evenodd" d="M160.275 32.6252H158.504V18.5722H153.237V16.9358H165.542V18.5722H160.275V32.6252Z" fill="white"/>
<path fill-rule="evenodd" clip-rule="evenodd" d="M185.3 22.2703C184.993 21.4789 184.564 20.791 184.011 20.2082C183.458 19.6258 182.805 19.1627 182.05 18.8188C181.295 18.4748 180.47 18.3031 179.573 18.3031C178.677 18.3031 177.851 18.4713 177.096 18.8072C176.342 19.1435 175.696 19.6031 175.158 20.1859C174.62 20.7688 174.197 21.4526 173.891 22.2369C173.585 23.0213 173.432 23.8617 173.432 24.7582C173.432 25.6546 173.585 26.4991 173.891 27.291C174.197 28.0834 174.627 28.7703 175.18 29.3526C175.733 29.9359 176.387 30.3991 177.141 30.7425C177.896 31.0864 178.722 31.2582 179.618 31.2582C180.515 31.2582 181.34 31.09 182.095 30.7536C182.849 30.4178 183.495 29.9582 184.033 29.3753C184.572 28.7925 184.993 28.1087 185.3 27.3248C185.606 26.54 185.76 25.6996 185.76 24.8031C185.76 23.9066 185.606 23.0622 185.3 22.2703ZM187.015 27.8622C186.626 28.8415 186.08 29.7041 185.378 30.4511C184.676 31.1986 183.832 31.792 182.845 32.2329C181.859 32.6738 180.769 32.894 179.573 32.894C178.378 32.894 177.291 32.6773 176.312 32.244C175.333 31.8112 174.493 31.2243 173.79 30.4849C173.088 29.7455 172.547 28.8864 172.166 27.9071C171.785 26.9289 171.594 25.894 171.594 24.8031C171.594 23.7122 171.788 22.6779 172.177 21.6986C172.565 20.7208 173.111 19.8577 173.813 19.1102C174.515 18.3632 175.36 17.7693 176.346 17.3284C177.332 16.888 178.422 16.6667 179.618 16.6667C180.813 16.6667 181.9 16.8839 182.879 17.3167C183.858 17.7506 184.698 18.3369 185.4 19.0768C186.103 19.8162 186.645 20.6758 187.026 21.6541C187.407 22.6329 187.597 23.6678 187.597 24.7582C187.597 25.8491 187.403 26.8839 187.015 27.8622Z" fill="white"/>
<path fill-rule="evenodd" clip-rule="evenodd" d="M207.365 16.9358H209.091V32.6252H207.679L197.549 19.76V32.6252H195.823V16.9358H197.481L207.365 29.5095V16.9358Z" fill="white"/>
<path fill-rule="evenodd" clip-rule="evenodd" d="M238.034 19.4353C237.263 18.86 236.24 18.5722 234.967 18.5722H230.989V25.4757H234.877C235.521 25.4757 236.11 25.3934 236.641 25.2287C237.173 25.0646 237.63 24.8292 238.012 24.5227C238.394 24.2166 238.686 23.8504 238.888 23.4247C239.091 22.9984 239.192 22.5247 239.192 22.0014C239.192 20.8661 238.806 20.01 238.034 19.4353ZM240.469 24.1752C240.141 24.8181 239.696 25.3555 239.136 25.7893C238.575 26.2227 237.922 26.5479 237.175 26.7641C236.427 26.9807 235.636 27.0893 234.799 27.0893H230.989V32.6252H229.218V16.9358H235.09C235.972 16.9358 236.775 17.052 237.5 17.2833C238.224 17.5151 238.845 17.8434 239.36 18.2696C239.876 18.6954 240.272 19.2186 240.548 19.8383C240.824 20.4585 240.963 21.1575 240.963 21.9343C240.963 22.7853 240.798 23.5333 240.469 24.1752Z" fill="white"/>
<path fill-rule="evenodd" clip-rule="evenodd" d="M261.683 22.2703C261.377 21.4789 260.947 20.791 260.395 20.2082C259.842 19.6258 259.188 19.1627 258.433 18.8188C257.679 18.4748 256.853 18.3031 255.956 18.3031C255.06 18.3031 254.234 18.4713 253.48 18.8072C252.725 19.1435 252.079 19.6031 251.541 20.1859C251.003 20.7688 250.581 21.4526 250.275 22.2369C249.969 23.0213 249.815 23.8617 249.815 24.7582C249.815 25.6546 249.969 26.4991 250.275 27.291C250.581 28.0834 251.011 28.7703 251.564 29.3526C252.117 29.9359 252.77 30.3991 253.525 30.7425C254.279 31.0864 255.105 31.2582 256.001 31.2582C256.898 31.2582 257.723 31.09 258.478 30.7536C259.233 30.4178 259.879 29.9582 260.417 29.3753C260.955 28.7925 261.377 28.1087 261.683 27.3248C261.989 26.54 262.142 25.6996 262.142 24.8031C262.142 23.9066 261.989 23.0622 261.683 22.2703ZM263.398 27.8622C263.009 28.8415 262.464 29.7041 261.762 30.4511C261.059 31.1986 260.215 31.792 259.229 32.2329C258.243 32.6738 257.152 32.894 255.956 32.894C254.761 32.894 253.674 32.6773 252.695 32.244C251.717 31.8112 250.876 31.2243 250.174 30.4849C249.472 29.7455 248.93 28.8864 248.549 27.9071C248.168 26.9289 247.978 25.894 247.978 24.8031C247.978 23.7122 248.172 22.6779 248.56 21.6986C248.948 20.7208 249.494 19.8577 250.196 19.1102C250.899 18.3632 251.743 17.7693 252.729 17.3284C253.716 16.888 254.806 16.6667 256.001 16.6667C257.196 16.6667 258.284 16.8839 259.263 17.3167C260.241 17.7506 261.082 18.3369 261.784 19.0768C262.486 19.8162 263.028 20.6758 263.409 21.6541C263.79 22.6329 263.981 23.6678 263.981 24.7582C263.981 25.8491 263.786 26.8839 263.398 27.8622Z" fill="white"/>
<path fill-rule="evenodd" clip-rule="evenodd" d="M281.796 19.3929C281.092 18.8459 280.104 18.5722 278.83 18.5722H273.977V24.9595H278.808C279.392 24.9595 279.931 24.8848 280.426 24.7353C280.92 24.5853 281.347 24.3711 281.707 24.0934C282.066 23.8161 282.346 23.4752 282.549 23.0706C282.751 22.6656 282.852 22.2085 282.852 21.6984C282.852 20.7085 282.5 19.9403 281.796 19.3929ZM283.01 32.6252L278.46 26.5287H273.977V32.6252H272.206V16.9358H278.953C279.819 16.9358 280.6 17.0484 281.294 17.2722C281.989 17.4969 282.583 17.8146 283.077 18.2252C283.57 18.6368 283.951 19.1297 284.219 19.7055C284.489 20.2807 284.623 20.9201 284.623 21.6227C284.623 22.2802 284.518 22.8676 284.309 23.3828C284.1 23.8989 283.805 24.3474 283.424 24.7282C283.043 25.1095 282.591 25.4272 282.068 25.6818C281.544 25.9358 280.977 26.1151 280.365 26.2191L285.184 32.6252H283.01Z" fill="white"/>
<path fill-rule="evenodd" clip-rule="evenodd" d="M298.654 32.6252H296.884V18.5722H291.617V16.9358H303.921V18.5722H298.654V32.6252Z" fill="white"/>
<path fill-rule="evenodd" clip-rule="evenodd" d="M323.084 18.5499H313.514V23.9065H322.075V25.5196H313.514V31.0116H323.196V32.6252H311.743V16.9358H323.084V18.5499Z" fill="white"/>
<path fill-rule="evenodd" clip-rule="evenodd" d="M340.833 19.3929C340.129 18.8459 339.14 18.5722 337.867 18.5722H333.014V24.9595H337.844C338.428 24.9595 338.968 24.8848 339.462 24.7353C339.956 24.5853 340.383 24.3711 340.743 24.0934C341.102 23.8161 341.383 23.4752 341.586 23.0706C341.788 22.6656 341.889 22.2085 341.889 21.6984C341.889 20.7085 341.537 19.9403 340.833 19.3929ZM342.046 32.6252L337.496 26.5287H333.014V32.6252H331.243V16.9358H337.989C338.855 16.9358 339.636 17.0484 340.331 17.2722C341.026 17.4969 341.62 17.8146 342.113 18.2252C342.606 18.6368 342.987 19.1297 343.256 19.7055C343.525 20.2807 343.659 20.9201 343.659 21.6227C343.659 22.2802 343.555 22.8676 343.346 23.3828C343.137 23.8989 342.842 24.3474 342.461 24.7282C342.08 25.1095 341.627 25.4272 341.104 25.6818C340.581 25.9358 340.014 26.1151 339.401 26.2191L344.22 32.6252H342.046Z" fill="white"/>
<path fill-rule="evenodd" clip-rule="evenodd" d="M25 0C11.2151 0 0 11.2149 0 25C0 28.4951 0.710949 31.8786 2.11321 35.0566C3.46698 38.1253 5.39635 40.8552 7.84733 43.1702C8.60358 43.8844 9.41485 44.5599 10.2583 45.1778L10.7239 45.519V26.3483H22.325V35.85H25.293V16.9371H36.223C37.8638 16.9371 39.1942 17.3084 40.1768 18.0404C41.1457 18.763 41.6167 19.8162 41.6167 21.2596C41.6167 21.9163 41.4886 22.5184 41.2365 23.0494C40.984 23.5804 40.6143 24.0431 40.1377 24.4249C39.6551 24.8121 39.0672 25.1147 38.3897 25.3238C37.7058 25.5352 36.9361 25.6426 36.1018 25.6426H28.1936V35.85H31.1618V28.3994H35.9972C37.1459 28.3994 38.249 28.2485 39.2756 27.9505C40.3121 27.6502 41.2329 27.1921 42.0127 26.5888C42.7973 25.9824 43.4284 25.2187 43.889 24.3188C44.3504 23.4164 44.5845 22.3567 44.5845 21.169C44.5845 20.0872 44.3883 19.0983 44.0012 18.2297C43.6119 17.357 43.0469 16.6109 42.3216 16.0117C41.6033 15.4183 40.7281 14.9538 39.7206 14.6314C38.7204 14.3119 37.5994 14.15 36.3892 14.15H22.325V23.531H10.7239V14.15H7.75568V38.9976C4.54084 35.0434 2.77921 30.104 2.77921 25C2.77921 12.7474 12.7474 2.77921 25 2.77921C37.2526 2.77921 47.2208 12.7474 47.2208 25C47.2208 37.2526 37.2526 47.2208 25 47.2208C21.0954 47.2208 17.2521 46.1883 13.8849 44.2351L13.4456 43.9801V47.1665L13.6043 47.2482C17.1548 49.0741 20.9889 50 25 50C38.7851 50 50 38.7851 50 25C50 11.2149 38.7851 0 25 0Z" fill="white"/>
</g>
<defs>
<clipPath id="clip0">
<rect width="344.444" height="50" fill="white"/>
</clipPath>
</defs>
</svg>
