<svg width="33" height="33" viewBox="0 0 33 33" fill="none" xmlns="http://www.w3.org/2000/svg">
<g clip-path="url(#clip0)">
<path d="M16.517 32.6283C25.4228 32.6283 32.6424 25.4088 32.6424 16.503C32.6424 7.59724 25.4228 0.377686 16.517 0.377686C7.61127 0.377686 0.391724 7.59724 0.391724 16.503C0.391724 25.4088 7.61127 32.6283 16.517 32.6283Z" stroke="white"/>
<path d="M14.8619 13.204H18.0184V14.7947C18.4734 13.88 19.6393 13.0579 21.3909 13.0579C24.7484 13.0579 25.5453 14.8784 25.5453 18.2191V24.4061H22.146V18.9799C22.146 17.0775 21.691 16.0045 20.5338 16.0045C18.9289 16.0045 18.2612 17.1612 18.2612 18.9799V24.4061H14.8619V13.204Z" fill="white"/>
<path d="M8.97412 24.2161H12.3454V13.0579H8.97412V24.2161Z" fill="white"/>
<path d="M12.9151 9.42544C12.9151 10.6447 11.9264 11.6334 10.7072 11.6334C9.48792 11.6334 8.49927 10.6447 8.49927 9.42544C8.49927 8.20618 9.48792 7.21753 10.7072 7.21753C11.9264 7.21753 12.9151 8.20618 12.9151 9.42544Z" fill="white"/>
</g>
<defs>
<clipPath id="clip0">
<rect width="33" height="33" fill="white"/>
</clipPath>
</defs>
</svg>
